<svg aria-hidden="true" style="position:absolute;width:0;height:0" xmlns="http://www.w3.org/2000/svg" overflow="hidden"><defs><symbol id="menu" viewBox="0 0 32 32"><path d="M6.4 11.733V9.6h19.2v2.133H6.4zm0 5.334h19.2v-2.133H6.4v2.133zm0 5.333h19.2v-2.133H6.4V22.4z"/></symbol><symbol id="mail" viewBox="0 0 43 32"><path d="M38.657.004H3.999A4.004 4.004 0 000 4.003v23.994a4.004 4.004 0 003.999 3.999h34.658a4.004 4.004 0 003.999-3.999V4.003A4.004 4.004 0 0038.657.004zm0 2.666c.181 0 .353.038.511.103l-17.84 15.462L3.488 2.773a1.32 1.32 0 01.511-.103h34.658zm0 26.66H3.999a1.334 1.334 0 01-1.333-1.333V5.59l17.789 15.417a1.331 1.331 0 001.746 0L39.99 5.59v22.407c0 .736-.597 1.333-1.333 1.333z"/></symbol><symbol id="smartphone" viewBox="0 0 20 32"><path d="M17 0H3C1.346 0 0 1.346 0 3v26c0 1.654 1.346 3 3 3h14c1.654 0 3-1.346 3-3V3c0-1.654-1.346-3-3-3zM3 2h14a1 1 0 011 1v21H2V3a1 1 0 011-1zm14 28H3a1 1 0 01-1-1v-3h16v3a1 1 0 01-1 1z"/><path d="M4.707 27.478c.391.365.391.956 0 1.321s-1.024.365-1.414 0c-.391-.365-.391-.956 0-1.321s1.024-.365 1.414 0z"/></symbol><symbol id="antenna" viewBox="0 0 32 32"><path fill="var(--color1, #212121)" d="M30.773 22.098l-8.443-8.505.937-4.616c.242.094.499.144.758.146h.006a2.159 2.159 0 10-2.008-1.435l-4.96.605L8.972.16A.534.534 0 008.595 0a.532.532 0 00-.373.155L6.709 1.659a.534.534 0 000 .754l.814.826a14.943 14.943 0 002.519 17.663.513.513 0 00.146.098c-.034.18-.051.364-.052.547v6.187h-6.4a2.67 2.67 0 00-2.667 2.667v1.067c0 .295.239.533.533.533h24.533a.533.533 0 00.533-.533v-1.067a2.67 2.67 0 00-2.667-2.667h-6.4v-2.742a15.09 15.09 0 003.049.32 14.854 14.854 0 007.04-1.783l.818.823a.534.534 0 00.377.16.532.532 0 00.373-.155l1.513-1.504a.534.534 0 000-.754zM23.28 6.233a1.066 1.066 0 11.752 1.822h-.003a1.067 1.067 0 01-.747-1.823h-.002zm-1.256 3.505l-.598 2.946-1.175-1.182 1.774-1.763zm-.606-.902l-1.92 1.909-1.485-1.493 3.405-.415zM24.004 28.8a1.6 1.6 0 011.6 1.6v.533H2.137V30.4a1.6 1.6 0 011.6-1.6h20.267zm-7.467-2.133v1.067h-5.333v-1.067h5.333zM11.204 25.6v-4.053c0-1.294 1.196-2.347 2.667-2.347s2.667 1.053 2.667 2.347V25.6h-5.333zm6.4-1.696v-2.357c0-1.882-1.675-3.413-3.733-3.413a3.8 3.8 0 00-3.281 1.786A13.87 13.87 0 018.311 4.033l18.602 18.709a13.818 13.818 0 01-9.309 1.163zm11.289-.684L7.836 2.039l.755-.752 7.935 7.98c.004 0 .006.007.01.01l13.115 13.191-.757.752z"/><path fill="var(--color2, #2196f3)" d="M13.876 20.267h-.005a1.6 1.6 0 10-.004 3.2h.005a1.6 1.6 0 10.004-3.2zm.373 1.978a.534.534 0 01-.752-.756.534.534 0 01.373-.155.532.532 0 01.373.911h.005z"/></symbol><symbol id="clock" viewBox="0 0 32 32"><path fill="var(--color1, #212121)" d="M31.305 15.301C31.303 6.849 24.45-.002 15.997 0S.694 6.855.696 15.308a15.304 15.304 0 0010.649 14.576.662.662 0 00.529-.065.637.637 0 00.283-.356l3.865-12.25a1.912 1.912 0 10-.84-3.635l-5.106-5.107a.637.637 0 00-.902.902l5.103 5.109a1.876 1.876 0 00.536 2.309L11.13 28.464C3.852 25.783.126 17.71 2.807 10.432S13.561-.572 20.839 2.109s11.004 10.754 8.323 18.032a14.042 14.042 0 01-7.462 7.973l-.398-1.874a.638.638 0 00-1.048-.344l-3.837 3.426a.637.637 0 00.231 1.084l4.899 1.563a.638.638 0 00.819-.74l-.391-1.839a15.255 15.255 0 009.329-14.089zM16 14.664a.638.638 0 110 1.277.638.638 0 010-1.277zm2.1 14.864l2.184-1.948.603 2.84-2.787-.892z"/><path fill="var(--color2, #2196f3)" d="M15.362 3.185V4.46a.638.638 0 101.276 0V3.185a.638.638 0 00-1.276 0zM3.884 14.664a.638.638 0 000 1.276h1.275a.638.638 0 100-1.276H3.884zM28.116 15.939a.638.638 0 100-1.276h-1.275a.638.638 0 000 1.276h1.275z"/></symbol><symbol id="diagram" viewBox="0 0 32 32"><path fill="var(--color2, #2196f3)" d="M14.925 14.945h1.066v4.798h-1.066v-4.797zM19.19 17.077h1.066v2.665H19.19v-2.665zM10.661 18.676h1.066v1.066h-1.066v-1.066zM7.463 18.143h1.066v1.599H7.463v-1.599z"/><path fill="var(--color1, #212121)" d="M1.599 28.271h25.587a1.6 1.6 0 001.599-1.599V24.54a1.6 1.6 0 00-1.599-1.599h-.533V9.648l3.028-2.868a1.608 1.608 0 10-.746-.763L26.654 8.18V6.95a1.6 1.6 0 00-1.599-1.599H3.733A1.6 1.6 0 002.134 6.95v15.992h-.533a1.6 1.6 0 00-1.599 1.599v2.132a1.6 1.6 0 001.599 1.599zM30.384 4.817a.533.533 0 110 1.067.533.533 0 010-1.067zM3.198 6.949c0-.294.239-.533.533-.533h21.322c.294 0 .533.239.533.533v2.239l-1.066 1.013V8.015a.533.533 0 00-.533-.533H4.797a.533.533 0 00-.533.533v13.326c0 .294.239.533.533.533h19.19a.533.533 0 00.533-.533v-9.674l1.066-1.01v12.284H3.198V6.949zm4.798 6.93a1.598 1.598 0 101.107 2.749l1.853.93a.532.532 0 00.636-.123l3.939-4.431 3.872 2.901a.533.533 0 00.686-.039l3.365-3.188v8.131H5.33V8.549h18.124v2.66l-3.771 3.572-3.904-2.927a.533.533 0 00-.718.072l-3.993 4.493-1.493-.746c.011-.064.018-.129.02-.193a1.6 1.6 0 00-1.599-1.599zm.533 1.599a.533.533 0 11-1.067 0 .533.533 0 011.067 0zm3.198 8.529h5.331v.533a.533.533 0 01-.533.533h-4.264a.533.533 0 01-.533-.533v-.533zm-10.661.533c0-.294.239-.533.533-.533h9.062v.533a1.6 1.6 0 001.599 1.599h4.264a1.6 1.6 0 001.599-1.599v-.533h9.062c.294 0 .533.239.533.533v2.132a.533.533 0 01-.533.533H1.598a.533.533 0 01-.533-.533V24.54z"/></symbol><symbol id="astronaut" viewBox="0 0 32 32"><path fill="var(--color2, #2196f3)" d="M31.974 4.524a.534.534 0 00-.43-.363l-1.91-.278-.855-1.731c-.179-.365-.777-.365-.956 0l-.855 1.731-1.91.278a.535.535 0 00-.296.91l1.383 1.348-.326 1.903c-.034.2.048.402.212.522a.53.53 0 00.562.04l1.709-.899 1.709.899a.536.536 0 00.775-.563l-.326-1.903 1.383-1.348a.536.536 0 00.135-.547zm-2.463 1.327a.534.534 0 00-.153.472l.191 1.114-1-.526a.533.533 0 00-.498 0l-1.001.526.191-1.114a.534.534 0 00-.153-.472l-.81-.789 1.119-.163a.532.532 0 00.402-.292l.5-1.013.5 1.013a.535.535 0 00.402.292l1.119.163-.809.789zM26.133 20.522h-1.067v1.067h1.067v-1.067zM26.133 22.656h-1.067v1.067h1.067v-1.067zM27.2 21.589h-1.067v1.067H27.2v-1.067zM25.067 21.589H24v1.067h1.067v-1.067zM22.4 26.389h-1.067v1.067H22.4v-1.067zM22.4 28.522h-1.067v1.067H22.4v-1.067zM23.467 27.456H22.4v1.067h1.067v-1.067zM21.333 27.456h-1.067v1.067h1.067v-1.067zM16 24.256h-1.067v1.067H16v-1.067zM16 26.389h-1.067v1.067H16v-1.067zM17.067 25.322H16v1.067h1.067v-1.067zM14.933 25.322h-1.067v1.067h1.067v-1.067zM5.866 6.122H4.799v1.067h1.067V6.122zM5.866 8.255H4.799v1.067h1.067V8.255z"/><path fill="var(--color2, #2196f3)" d="M6.933 7.189H5.866v1.067h1.067V7.189zM4.8 7.189H3.733v1.067H4.8V7.189z"/><path fill="var(--color1, #212121)" d="M24.715 14.159a1.775 1.775 0 00-1.188-.705 1.778 1.778 0 00-1.34.352l-1.252.96-1.898 1.417-1.358-.541c2.421-1.086 4.114-3.508 4.114-6.32 0-3.823-3.123-6.933-6.961-6.933s-6.961 3.11-6.961 6.933a6.86 6.86 0 001.12 3.758l-2.764-.024h-.005c-.009 0-.015.004-.023.005a.515.515 0 00-.155.031l-.038.013c-.006.003-.013.003-.019.006l-3.233 1.596-.001.001-1.893.911a.397.397 0 00-.063.035 1.779 1.779 0 00-.598 2.295c.22.429.595.745 1.056.889a1.776 1.776 0 001.378-.128l1.388-.738 2.264-1.169 1.357-.008L2.2 22.211l-.002.001-1.339 1.333c-.316.315-.49.732-.49 1.178s.174.863.49 1.179c.325.323.752.485 1.179.485s.854-.162 1.18-.485l1.314-1.309 1.741-1.3.901.897-1.762 1.754-.002.001-1.339 1.333c-.316.315-.49.732-.49 1.178s.174.863.49 1.179c.325.323.753.485 1.18.485s.855-.162 1.18-.485l3.482-3.467.001-.002 1.01-1-.004-.004c.006-.006.015-.009.022-.015l5.166-5.658 3.471.494a.52.52 0 00.262-.033c.018-.006.033-.015.05-.023.019-.01.039-.015.058-.027l3.213-2.133c.012-.008.018-.021.029-.029.013-.01.029-.014.041-.026l1.271-1.191c.662-.62.753-1.635.212-2.362zM2.13 17.77a.714.714 0 01-.558.052.717.717 0 01-.213-1.26l1.314-.632.449 1.312-.992.528zm3.497-1.828l-1.548.8-.439-1.283 2.027-1.001-.04 1.484zm15.1-6.62a5.79 5.79 0 01-.599 2.559l-4.181-1.899a1.863 1.863 0 00-.788-1.388l1.464-4.86c2.378.756 4.105 2.974 4.105 5.588zm-11.789 0c0-3.235 2.644-5.867 5.895-5.867.253 0 .5.021.745.052l-1.432 4.754c-.019-.001-.037-.006-.057-.006-1.033 0-1.873.837-1.873 1.867s.84 1.867 1.873 1.867c.694 0 1.294-.383 1.618-.945l3.862 1.755a5.894 5.894 0 01-4.737 2.39c-3.25 0-5.894-2.632-5.894-5.867zm5.956.8c0 .441-.362.8-.806.8s-.806-.359-.806-.8c0-.441.362-.8.806-.8s.806.359.806.8zM2.465 25.146a.608.608 0 01-.854.001.592.592 0 010-.844l.962-.958.851.848-.959.955zm3.214 3.734a.608.608 0 01-.855.001.592.592 0 010-.844l.963-.959.852.848-.96.955zm3.481-3.469l-.002.001-1.765 1.76-.852-.848 1.763-1.755.002-.001c.04-.04.065-.088.09-.135.007-.014.02-.026.026-.04.017-.041.019-.085.026-.129.003-.025.014-.047.014-.073 0-.036-.013-.07-.02-.106-.006-.032-.006-.065-.019-.095a.55.55 0 00-.091-.138c-.01-.012-.014-.027-.025-.038h-.001l-.001-.002-1.607-1.6c-.017-.017-.039-.024-.058-.038a.507.507 0 00-.087-.058.515.515 0 00-.093-.033.507.507 0 00-.103-.02.5.5 0 00-.095.005.53.53 0 00-.104.02.477.477 0 00-.094.045c-.02.011-.042.015-.061.029L4.23 23.486l-.901-.897 2.399-2.386 4.361 4.289-.928.919zm6.819-7.017c-.015-.002-.03.004-.045.003a.556.556 0 00-.3.075.492.492 0 00-.083.061c-.013.011-.028.017-.04.029l-4.698 5.146-4.328-4.257 2.833-2.818a.534.534 0 00-.379-.911v-.001l-2.219.013.028-1.607 3.104.027a6.947 6.947 0 004.981 2.101c.437 0 .864-.045 1.279-.123.04.032.079.065.13.085l2.41.96.331 1.644-3.003-.427zm4.041.178l-.313-1.558 1.446-1.08.947 1.257-2.08 1.381zm3.754-2.831l-.838.785-.931-1.236.831-.637a.735.735 0 01.543-.143.718.718 0 01.48.284.713.713 0 01-.085.947z"/><path fill="var(--color1, #212121)" d="M13.602 18.544l-2.143-2.133a.534.534 0 00-.753 0l-2.142 2.133a.537.537 0 000 .756l2.142 2.133a.536.536 0 00.753 0l2.143-2.133a.535.535 0 000-.756zm-2.519 1.759l-1.387-1.381 1.387-1.381 1.387 1.381-1.387 1.381zM17.164 5.071l-.258 1.036c.071.018 1.738.452 1.738 2.149h1.067c0-2.017-1.666-2.965-2.547-3.185zM19.711 9.322h-1.067v1.067h1.067V9.322z"/></symbol><symbol id="instagram" viewBox="0 0 32 32"><path d="M31.916 9.408c-.075-1.7-.35-2.869-.744-3.882a7.806 7.806 0 00-1.851-2.838A7.867 7.867 0 0026.489.844C25.47.45 24.307.175 22.607.1 20.894.019 20.35 0 16.006 0s-4.888.019-6.595.094c-1.7.075-2.869.35-3.882.744a7.803 7.803 0 00-2.838 1.85A7.867 7.867 0 00.847 5.52C.453 6.539.178 7.702.103 9.402c-.081 1.713-.1 2.257-.1 6.601s.019 4.888.094 6.595c.075 1.7.35 2.869.744 3.882a7.895 7.895 0 001.85 2.838 7.867 7.867 0 002.832 1.844c1.019.394 2.182.669 3.882.744 1.706.075 2.25.094 6.595.094s4.888-.019 6.595-.094c1.7-.075 2.869-.35 3.882-.744a8.184 8.184 0 004.682-4.682c.394-1.019.669-2.182.744-3.882.075-1.707.094-2.251.094-6.595s-.006-4.889-.081-6.595zm-2.882 13.065c-.069 1.563-.331 2.407-.55 2.969a5.31 5.31 0 01-3.038 3.038c-.563.219-1.413.481-2.969.55-1.688.075-2.194.094-6.464.094s-4.782-.019-6.464-.094c-1.563-.069-2.407-.331-2.969-.55a4.926 4.926 0 01-1.838-1.194 4.974 4.974 0 01-1.194-1.838c-.219-.563-.481-1.413-.55-2.969-.075-1.688-.094-2.194-.094-6.464s.019-4.782.094-6.464c.069-1.563.331-2.407.55-2.969a4.868 4.868 0 011.2-1.838A4.974 4.974 0 016.586 3.55c.563-.219 1.413-.481 2.969-.55 1.688-.075 2.194-.094 6.464-.094 4.276 0 4.782.019 6.464.094 1.563.069 2.407.331 2.969.55a4.914 4.914 0 011.838 1.194 4.974 4.974 0 011.194 1.838c.219.563.481 1.413.55 2.969.075 1.688.094 2.194.094 6.464s-.019 4.77-.094 6.458z"/><path d="M16.006 7.783c-4.538 0-8.22 3.682-8.22 8.22s3.682 8.22 8.22 8.22c4.539 0 8.22-3.682 8.22-8.22s-3.682-8.22-8.22-8.22zm0 13.552a5.333 5.333 0 010-10.664 5.333 5.333 0 010 10.664zM26.471 7.458a1.919 1.919 0 11-3.838 0 1.919 1.919 0 013.838 0z"/></symbol><symbol id="twitter" viewBox="0 0 32 32"><path d="M32 6.078c-1.19.522-2.458.868-3.78 1.036a6.523 6.523 0 002.886-3.626 13.11 13.11 0 01-4.16 1.588A6.574 6.574 0 0022.154 3c-3.632 0-6.556 2.948-6.556 6.562 0 .52.044 1.02.152 1.496-5.454-.266-10.28-2.88-13.522-6.862a6.605 6.605 0 00-.898 3.316 6.57 6.57 0 002.914 5.452 6.479 6.479 0 01-2.964-.808v.072c0 3.188 2.274 5.836 5.256 6.446a6.548 6.548 0 01-1.72.216 5.8 5.8 0 01-1.242-.112c.85 2.598 3.262 4.508 6.13 4.57a13.182 13.182 0 01-8.134 2.798c-.538 0-1.054-.024-1.57-.09A18.469 18.469 0 0010.064 29c12.072 0 18.672-10 18.672-18.668 0-.29-.01-.57-.024-.848A13.087 13.087 0 0032 6.078z"/></symbol><symbol id="facebook" viewBox="0 0 32 32"><path d="M21.079 5.313H24V.225C23.496.156 21.763 0 19.744 0c-4.212 0-7.097 2.649-7.097 7.519V12H7.999v5.688h4.648V32h5.699V17.689h4.46l.708-5.688h-5.169V8.082c.001-1.644.444-2.769 2.735-2.769z"/></symbol><symbol id="linkedin" viewBox="0 0 32 32"><path d="M31.992 32v-.001H32V20.263c0-5.741-1.236-10.164-7.948-10.164-3.227 0-5.392 1.771-6.276 3.449h-.093v-2.913h-6.364v21.364h6.627V21.42c0-2.785.528-5.479 3.977-5.479 3.399 0 3.449 3.179 3.449 5.657v10.401h6.62zM.528 10.636h6.635V32H.528V10.636zM3.843 0C1.722 0 0 1.721 0 3.843s1.721 3.879 3.843 3.879c2.121 0 3.843-1.757 3.843-3.879A3.846 3.846 0 003.843 0z"/></symbol><symbol id="yaco" viewBox="0 0 28 32"><path d="M4.084.106l4.77 4.515L0 4.616v21.908h23.142v-8.376l4.765 4.51V.106H4.085zm18.848 17.512L9.408 4.815h13.524v12.803zm-4.199 5.702H3.662V8.586h1.065v13.737h14.006v.998zM7.221 29.441l-.557 1.147-.557-1.147H5.64l.813 1.529v.891h.422v-.891l.811-1.529h-.465zm.699 2.42l.196-.563h.937l.198.563h.439l-.916-2.419h-.377l-.914 2.419h.437zm.665-1.906l.351 1.004h-.701l.351-1.004zm2.217.945a.547.547 0 00-.091.307c0 .204.071.369.214.497.144.126.336.189.575.189s.445-.065.618-.194l.136.161h.469l-.356-.42c.14-.191.209-.435.209-.733h-.351a.973.973 0 01-.101.444l-.467-.552.165-.12a.905.905 0 00.251-.253.532.532 0 00.076-.279.498.498 0 00-.169-.384.61.61 0 00-.432-.156.641.641 0 00-.465.166.591.591 0 00-.173.449c0 .078.018.158.055.241.038.083.104.184.198.302-.179.128-.3.24-.361.334zm1.092.535a.614.614 0 01-.382.136c-.121 0-.217-.035-.289-.105s-.108-.161-.108-.273c0-.13.066-.245.199-.346l.052-.037.528.623zm-.434-1.072c-.114-.141-.171-.258-.171-.351 0-.081.023-.148.07-.201s.109-.08.188-.08c.073 0 .133.023.181.068a.21.21 0 01.071.161.298.298 0 01-.103.234l-.052.042-.184.126zm3.938 1.315c.166-.145.261-.347.286-.605h-.419c-.022.173-.075.296-.158.371s-.207.111-.372.111a.468.468 0 01-.412-.206c-.093-.137-.14-.337-.14-.598v-.214c.002-.258.052-.454.15-.587a.493.493 0 01.422-.201c.157 0 .276.039.357.116.082.076.133.202.153.375h.419c-.027-.265-.121-.47-.284-.615s-.378-.218-.645-.218a.978.978 0 00-.525.141c-.151.094-.266.228-.347.402s-.121.375-.121.603v.226c.003.223.045.418.125.587s.193.299.339.39a.949.949 0 00.51.136c.276 0 .497-.072.663-.216zm2.471-.339a1.49 1.49 0 00.123-.625v-.135a1.462 1.462 0 00-.126-.62.924.924 0 00-.877-.552.96.96 0 00-.525.145.939.939 0 00-.354.414 1.484 1.484 0 00-.125.625v.136c.001.232.043.436.126.613a.953.953 0 00.356.41.98.98 0 00.525.143.97.97 0 00.525-.143.932.932 0 00.352-.412zm-.45-1.368c.102.143.153.348.153.617v.126c0 .273-.05.48-.151.622a.493.493 0 01-.429.213.503.503 0 01-.432-.218c-.103-.145-.155-.351-.155-.617v-.14c.002-.26.054-.461.156-.603a.496.496 0 01.427-.214c.186 0 .33.071.43.214z"/></symbol><symbol id="comp-tagline-here" viewBox="0 0 25 32"><path d="M10.536 1.806h-.084a9.985 9.985 0 00-.388-.014h-.28c-.244 0-.494.006-.741.019a.523.523 0 00-.056 0c-2.243.127-4.44.688-6.472 1.651l-.266.128v13.626l.623-.211a23.32 23.32 0 011.731-.513 21.155 21.155 0 014.982-.662v1.79a15.56 15.56 0 00-.655.019h-.051a19.948 19.948 0 00-3.833.588c-1.59.398-3.124.996-4.566 1.779V2.531A18.3 18.3 0 015.27.583 18.343 18.343 0 019.785.001h.263c.314.008.621.022.909.044.759.053 1.511.173 2.249.358v1.762a13.965 13.965 0 00-2.179-.329l-.045-.004c-.152-.013-.304-.026-.446-.026zm3.101 1.801c.391.03.796.044 1.205.044a19.352 19.352 0 004.747-.609c1.59-.4 3.123-.998 4.564-1.781v17.164a18.313 18.313 0 01-4.792 1.948 18.486 18.486 0 01-4.515.581 13.778 13.778 0 01-3.425-.404V3.275c.265.061.537.117.814.164.455.077.934.133 1.401.167zm8.735.133l-.623.21c-.573.192-1.151.365-1.731.518a21.098 21.098 0 01-5.173.663c-.406 0-.78-.011-1.141-.034l-.497-.033v14.017l.427.038c.395.034.803.052 1.214.052a16.567 16.567 0 004.074-.527 17.08 17.08 0 003.184-1.144l.266-.128V3.742zM1.689 25.977a.912.912 0 00-.693-.28 1.034 1.034 0 00-.4.075.91.91 0 00-.512.518 1.023 1.023 0 00-.072.387v2.335c-.006.165.026.328.092.479.055.12.135.226.233.313a.815.815 0 00.321.166c.114.032.231.048.349.049a.972.972 0 00.892-.61.951.951 0 00.075-.372v-.261h-.61v.208a.528.528 0 01-.036.208.359.359 0 01-.089.131.365.365 0 01-.128.067.425.425 0 01-.128.022.314.314 0 01-.286-.125.548.548 0 01-.081-.313v-2.177a.738.738 0 01.075-.349.31.31 0 01.299-.141.33.33 0 01.272.131c.068.09.104.2.101.313v.202h.604v-.238a1.093 1.093 0 00-.279-.737zM5.315 25.951a1.051 1.051 0 00-1.38 0 .961.961 0 00-.237.327 1.099 1.099 0 00-.089.452v2.239a1.08 1.08 0 00.089.459c.055.12.136.227.237.313a.94.94 0 00.322.197 1.028 1.028 0 00.728 0c.121-.044.233-.111.33-.197a.948.948 0 00.23-.313 1.08 1.08 0 00.089-.459V26.73a1.08 1.08 0 00-.089-.452 1.015 1.015 0 00-.23-.327zm-.285 3.018a.405.405 0 01-.121.324.445.445 0 01-.574 0 .397.397 0 01-.121-.324V26.73a.405.405 0 01.121-.324.445.445 0 01.574 0 .397.397 0 01.121.324v2.239zM10.077 29.969V25.73H9.49l-.771 2.244h-.011l-.777-2.244H7.35v4.239h.606V27.39h.011l.593 1.823h.302l.598-1.823h.011v2.579h.606zM13.518 26.027a.84.84 0 00-.343-.232 1.363 1.363 0 00-.439-.066h-.9v4.239h.604v-1.656h.311c.188.009.376-.031.545-.116a.882.882 0 00.332-.324 1.02 1.02 0 00.139-.369c.024-.16.035-.321.033-.482a2.421 2.421 0 00-.059-.606.898.898 0 00-.223-.39zm-.312 1.293a.547.547 0 01-.056.221.346.346 0 01-.156.149.619.619 0 01-.285.053h-.275v-1.441h.311a.578.578 0 01.272.053.349.349 0 01.142.157.62.62 0 01.053.236v.282c0 .099.006.2 0 .291h-.006zM16.379 25.73h-.495l-.934 4.239h.604l.177-.911h.823l.177.911h.604l-.957-4.239zm-.557 2.751l.297-1.537h.011l.296 1.537h-.604zM20.282 28.284h-.011l-.912-2.554h-.581v4.239h.604V27.42h.012l.923 2.549h.568V25.73h-.604v2.554zM23.973 25.73l-.486 1.685h-.012l-.486-1.685h-.64l.83 2.447v1.792h.604v-1.792l.83-2.447h-.64zM.005 31.166h.291v.817h.198v-.817h.29v-.167H.006v.167zM2.452 30.999l-.381.984h.21l.081-.224h.392l.084.224h.215l-.391-.984h-.21zm-.031.594l.134-.365.134.365h-.268zM4.871 31.62h.227v.127a.382.382 0 01-.234.083.244.244 0 01-.209-.093.411.411 0 01-.073-.257c0-.219.095-.329.283-.329a.206.206 0 01.222.157l.195-.038c-.042-.192-.181-.289-.417-.289a.495.495 0 00-.344.127.494.494 0 00-.141.379.532.532 0 00.126.369.477.477 0 00.374.144.59.59 0 00.417-.157v-.388H4.87v.166zM7.342 30.999h-.199v.984h.69v-.167h-.49v-.817zM9.431 30.999h-.199v.984h.199v-.984zM11.473 31.656l-.403-.657h-.193v.984h.185v-.643l.395.643h.198v-.984h-.182v.657zM13.32 31.55h.49v-.167h-.49v-.216h.528V31h-.727v.984h.747v-.167h-.548v-.266zM17.797 31.387h-.388v-.388h-.198v.984h.198v-.43h.388v.43h.198v-.984h-.198v.388zM19.654 31.55h.492v-.167h-.492v-.216h.529V31h-.727v.984h.746v-.167h-.548v-.266zM22.173 31.55c.171-.027.258-.117.258-.274a.236.236 0 00-.096-.219.553.553 0 00-.288-.058h-.417v.984h.198v-.412h.039a.261.261 0 01.123.022.21.21 0 01.07.072l.215.313h.237l-.12-.192a.685.685 0 00-.218-.236zm-.199-.136h-.146v-.247h.156a.526.526 0 01.201.023c.014.013.026.029.033.046a.133.133 0 01-.005.111.128.128 0 01-.037.043.547.547 0 01-.201.023zM24.072 31.55h.49v-.167h-.49v-.216h.529V31h-.729v.984h.747v-.167h-.548v-.266z"/></symbol><symbol id="comp" viewBox="0 0 34 32"><path d="M5.482 31.394a.095.095 0 01.066.026l.17.162a1.406 1.406 0 01-.477.308 1.838 1.838 0 01-.676.11 1.798 1.798 0 01-.636-.103 1.388 1.388 0 01-.479-.291 1.283 1.283 0 01-.309-.449 1.488 1.488 0 01-.108-.576 1.347 1.347 0 01.445-1.027c.145-.127.318-.226.508-.293.209-.07.431-.105.655-.103.208-.004.415.027.608.094.168.063.322.151.455.26l-.142.173a.134.134 0 01-.036.031.094.094 0 01-.057.013.14.14 0 01-.061-.018l-.076-.046-.106-.059a1.169 1.169 0 00-.335-.103 1.418 1.418 0 00-.252-.018 1.355 1.355 0 00-.47.077 1.09 1.09 0 00-.369.217.988.988 0 00-.239.346c-.06.147-.089.301-.087.457a1.18 1.18 0 00.087.464.969.969 0 00.587.558c.138.05.287.075.436.074.086.001.173-.004.258-.015a1.029 1.029 0 00.559-.237.127.127 0 01.08-.029zM10.376 30.58a1.41 1.41 0 01-.114.573c-.069.166-.178.318-.319.444s-.312.226-.501.292a2.07 2.07 0 01-1.288 0 1.47 1.47 0 01-.498-.293 1.302 1.302 0 01-.322-.449 1.49 1.49 0 010-1.147c.072-.167.182-.321.322-.451.142-.123.311-.218.498-.282.414-.14.874-.14 1.288 0 .188.066.358.166.5.293a1.328 1.328 0 01.434 1.02zm-.445 0a1.214 1.214 0 00-.081-.46.943.943 0 00-.585-.561 1.484 1.484 0 00-.936 0 1.01 1.01 0 00-.358.217.94.94 0 00-.229.344 1.35 1.35 0 000 .921.94.94 0 00.587.559c.302.098.634.098.936 0 .136-.048.259-.121.358-.215a.956.956 0 00.227-.344c.057-.148.084-.304.081-.46zM13.715 31.062l.044.103c.017-.037.032-.07.049-.103a.987.987 0 01.055-.101l1.083-1.71c.021-.029.04-.048.061-.053a.267.267 0 01.089-.009h.32v2.781h-.379v-2.045-.087a.769.769 0 010-.096l-1.089 1.734c-.014.026-.036.048-.064.063s-.06.023-.093.023h-.061c-.033 0-.065-.008-.093-.023s-.05-.037-.063-.064l-1.121-1.745V31.962h-.367v-2.776h.32c.03-.002.06.002.089.009.026.011.047.03.059.053l1.106 1.712c.022.032.04.065.055.099zM17.789 30.924v1.042h-.424v-2.777h.945c.178-.003.356.017.528.061.137.034.264.093.373.173a.712.712 0 01.212.272c.05.113.074.234.072.355a.762.762 0 01-.307.633 1.077 1.077 0 01-.375.184 1.752 1.752 0 01-.511.064l-.513-.007zm0-.298h.513c.111.001.222-.013.328-.042a.707.707 0 00.237-.12.531.531 0 00.195-.418c.005-.077-.01-.154-.043-.226s-.084-.137-.148-.19a.909.909 0 00-.57-.149h-.513v1.145zM23.484 31.97h-.335a.156.156 0 01-.148-.09l-.288-.672h-1.447l-.299.672a.158.158 0 01-.148.091h-.335l1.271-2.782h.441l1.288 2.782zm-2.098-1.033h1.195l-.504-1.132a1.816 1.816 0 01-.095-.261l-.049.145a1.317 1.317 0 01-.047.118l-.5 1.13zM25.314 29.201a.185.185 0 01.064.05l1.854 2.097v-.098-2.062h.379v2.781h-.212a.199.199 0 01-.087-.017.232.232 0 01-.068-.052l-1.852-2.095a.769.769 0 010 .096v2.068h-.379v-2.781h.225a.196.196 0 01.076.013zM30.733 30.863v1.105h-.424v-1.105l-1.172-1.675h.379a.15.15 0 01.091.024.243.243 0 01.057.063l.733 1.081a1.43 1.43 0 01.129.247l.055-.12c.021-.044.045-.086.072-.127l.723-1.088a.306.306 0 01.055-.059.145.145 0 01.091-.028h.383l-1.174 1.682zM13.505 24.521c.184.02.371.037.559.052 2.859-1.111 5.277-2.93 6.953-5.228s2.534-4.975 2.469-7.696l-3.15-2.737c.64 2.896.341 5.89-.865 8.647s-3.272 5.168-5.965 6.962z"/><path d="M12.38 24.393l.085.015c2.878-1.789 5.072-4.286 6.299-7.17s1.429-6.021.582-9.006l-4.487-3.899c1.815 3.205 2.546 6.791 2.107 10.342s-2.029 6.921-4.585 9.718zM27.598 14.862c-.762 2.989-2.614 5.685-5.28 7.687a16.842 16.842 0 01-2.508 1.565c2.171-.554 4.166-1.534 5.832-2.864s2.958-2.975 3.776-4.808l-1.82-1.579z"/><path d="M26.884 14.422l-2.591-2.251c-.05 2.567-.889 5.075-2.432 7.264s-3.732 3.98-6.341 5.185h.013c.581 0 1.162-.03 1.739-.09 2.438-.865 4.592-2.24 6.269-4.004s2.826-3.861 3.343-6.104zM12.755 2.689L9.664 0c-2.763.928-5.14 2.559-6.819 4.679S.263 9.311.255 11.885c.01 2.844 1.112 5.604 3.131 7.843s4.839 3.829 8.015 4.518c2.835-3.001 4.495-6.709 4.738-10.586s-.942-7.72-3.385-10.971zM34.026 14.008c-.011-3.374-1.559-6.608-4.305-8.994s-6.468-3.731-10.351-3.74a16.433 16.433 0 00-5.248.849l18.925 16.443c.648-1.453.98-2.999.979-4.558z"/></symbol><symbol id="foster-peters" viewBox="0 0 65 32"><path d="M15.668 9.77h-.002c-1.889 0-3.42 1.361-3.42 3.04v.002c0 1.679 1.531 3.04 3.42 3.04h.002c1.889 0 3.42-1.361 3.42-3.04v-.002c0-1.679-1.531-3.04-3.42-3.04zM40.914 8.798c-.005-2.332-1.05-4.566-2.905-6.215S33.639.005 31.016 0c-2.624.004-5.14.932-6.996 2.582s-2.901 3.884-2.906 6.217v12.858s19.798-1.96 19.801-12.856v-.002zM5.312 25.877c.005 1.622.732 3.177 2.023 4.325s3.04 1.794 4.865 1.799c1.825-.005 3.574-.651 4.865-1.798s2.018-2.701 2.023-4.323v-8.947S5.312 18.298 5.312 25.878zm6.888 1.602c-.357 0-.705-.094-1.002-.27s-.528-.426-.664-.719-.172-.615-.103-.926.241-.597.494-.821.574-.377.924-.439c.35-.062.713-.03 1.042.091s.611.327.809.59c.198.264.304.574.304.891.001.211-.045.42-.135.615s-.223.373-.391.522c-.168.15-.367.268-.586.349s-.454.123-.692.123v-.006zM26.122 26.597h-1.329v1.373h-.692v-3.36h2.188v.561h-1.495v.868h1.329v.558zm3.328-.231c0 .331-.058.621-.175.87a1.321 1.321 0 01-1.251.78c-.278 0-.527-.067-.745-.201s-.388-.325-.508-.572a1.969 1.969 0 01-.182-.859v-.166c0-.331.059-.622.178-.872a1.34 1.34 0 01.505-.579c.218-.135.468-.203.748-.203s.528.068.745.203c.218.134.387.327.505.579.12.251.18.541.18.87v.15zm-.702-.152c0-.352-.063-.62-.189-.803s-.306-.275-.54-.275a.618.618 0 00-.538.272c-.126.18-.19.445-.192.794v.164c0 .343.063.609.189.798s.308.284.545.284a.61.61 0 00.535-.272c.125-.183.188-.449.189-.799v-.164zm2.948.874a.352.352 0 00-.138-.3c-.092-.071-.258-.145-.498-.221a3.585 3.585 0 01-.57-.231c-.381-.206-.572-.484-.572-.833 0-.182.051-.343.152-.485.103-.143.25-.255.441-.335.192-.08.408-.12.646-.12.24 0 .454.044.642.132a1 1 0 01.436.367.953.953 0 01.157.54H31.7a.45.45 0 00-.145-.358c-.097-.086-.233-.129-.408-.129-.169 0-.301.036-.395.108a.336.336 0 00-.141.282c0 .109.055.201.164.275.111.074.273.143.487.208.394.118.681.265.861.441s.27.394.27.655a.81.81 0 01-.33.685c-.22.165-.516.247-.888.247-.258 0-.494-.047-.706-.141a1.128 1.128 0 01-.487-.39.999.999 0 01-.166-.572h.695c0 .371.221.556.665.556.165 0 .293-.033.385-.099a.331.331 0 00.138-.282zm3.694-1.918h-1.029v2.799h-.692V25.17h-1.015v-.561h2.737v.561zm2.419 1.344H36.48v.9h1.56v.556h-2.252v-3.36h2.248v.561h-1.555v.801h1.329v.542zm1.881.226h-.552v1.23h-.692v-3.36h1.249c.397 0 .703.088.919.265s.323.427.323.75c0 .229-.05.421-.15.575a1.01 1.01 0 01-.45.365l.727 1.373v.032h-.743l-.63-1.23zm-.552-.561h.559c.174 0 .309-.044.404-.132a.48.48 0 00.143-.367.506.506 0 00-.136-.374c-.089-.091-.227-.136-.413-.136h-.556v1.009zm4.196.607v1.184h-.692v-3.36h1.311c.252 0 .474.046.665.138.192.092.34.224.443.395.103.169.155.362.155.579 0 .329-.113.589-.339.78-.225.189-.536.284-.935.284h-.607zm0-.561h.618c.183 0 .322-.043.418-.129.097-.086.145-.209.145-.369 0-.165-.049-.298-.145-.399s-.231-.154-.402-.157h-.635v1.055zm4.38.289h-1.329v.9h1.56v.556h-2.252v-3.36h2.248v.561h-1.555v.801h1.329v.542zm3.212-1.344h-1.029v2.799h-.692V25.17H48.19v-.561h2.737v.561zm2.419 1.344h-1.329v.9h1.56v.556h-2.252v-3.36h2.248v.561h-1.555v.801h1.329v.542zm1.881.226h-.552v1.23h-.692v-3.36h1.248c.397 0 .703.088.919.265s.323.427.323.75c0 .229-.05.421-.15.575a1.015 1.015 0 01-.45.365l.727 1.373v.032h-.743l-.63-1.23zm-.552-.561h.558c.174 0 .309-.044.404-.132a.48.48 0 00.143-.367.506.506 0 00-.136-.374c-.089-.091-.227-.136-.413-.136h-.556v1.009zm4.069.909a.352.352 0 00-.138-.3c-.092-.071-.258-.145-.498-.221a3.585 3.585 0 01-.57-.231c-.382-.206-.572-.484-.572-.833 0-.182.051-.343.152-.485.103-.143.25-.255.441-.335.192-.08.408-.12.646-.12.24 0 .454.044.642.132a1 1 0 01.436.367.953.953 0 01.157.54h-.692a.45.45 0 00-.145-.358c-.097-.086-.233-.129-.409-.129-.169 0-.301.036-.395.108a.336.336 0 00-.141.282c0 .109.055.201.164.275.111.074.273.143.487.208.394.118.681.265.861.441s.27.394.27.655a.81.81 0 01-.33.685c-.22.165-.516.247-.888.247-.259 0-.494-.047-.706-.141a1.128 1.128 0 01-.487-.39.999.999 0 01-.166-.572h.695c0 .371.222.556.665.556.165 0 .293-.033.385-.099a.331.331 0 00.138-.282z"/></symbol><symbol id="brand" viewBox="0 0 43 32"><path d="M3.263 26.464a.987.987 0 01.252.67c.009.159-.022.317-.09.464s-.17.277-.3.383a1.8 1.8 0 01-1.133.309H0v-4.248h1.951c.385-.023.767.076 1.081.282.126.097.226.219.292.357s.095.288.087.438a.928.928 0 01-.227.649 1.075 1.075 0 01-.594.332c.264.044.503.173.673.363zm-2.336-.641h.834a.84.84 0 00.53-.141c.063-.052.111-.116.142-.188s.044-.149.037-.227a.488.488 0 00-.176-.415.856.856 0 00-.546-.143h-.82v1.114zm1.446 1.629c.067-.053.12-.12.154-.195s.049-.156.043-.237c.005-.082-.01-.164-.045-.239s-.088-.143-.156-.196a.921.921 0 00-.567-.154H.927v1.168h.886a.936.936 0 00.56-.147zM7.252 28.29l-1.086-1.66h-.408v1.66h-.934v-4.248h1.768c.446-.028.886.101 1.231.361.247.231.396.534.42.857s-.078.642-.289.901a1.476 1.476 0 01-.843.432l1.156 1.697H7.252zm-1.493-2.239h.764c.53 0 .795-.214.795-.643.005-.088-.009-.175-.043-.257s-.085-.157-.152-.22a.88.88 0 00-.601-.172h-.773l.009 1.293zM12.356 27.435h-1.861l-.329.855h-.979l1.709-4.2h1.058l1.702 4.2h-.979l-.322-.855zm-.249-.643l-.68-1.793-.68 1.793h1.36zM18.745 28.29h-.927l-2.078-2.889v2.889h-.925v-4.248h.925l2.078 2.905v-2.905h.927v4.248zM24.035 27.273a1.929 1.929 0 01-.839.749 2.932 2.932 0 01-1.303.268h-1.65v-4.248h1.65c.451-.011.898.079 1.303.261.355.164.647.422.839.741.191.346.29.727.29 1.114s-.099.769-.29 1.114zm-1.061-.102c.265-.282.41-.642.41-1.014s-.145-.732-.41-1.014a1.707 1.707 0 00-1.16-.361h-.644v2.75h.644c.424.024.841-.106 1.16-.361zM12.936.415s11.964 4.136 11.71 10.12v10.122S12.691 16.519 12.94 10.535L12.935.415zM35.305 18.288a17.348 17.348 0 017.601-2.565v-3.169c-3.144 1.109-5.81 3.121-7.601 5.734z"/><path d="M33.947 19.242c1.849-3.41 5.056-6.041 8.959-7.352V2.76S25.868 8.651 26.228 17.174v14.412s.759-.264 1.954-.757c0-.461 0-.925.054-1.392.353-3.957 2.407-7.623 5.711-10.193z"/><path d="M32.327 24.596c.09-.999.289-1.988.596-2.951-2.057 2.22-3.303 4.974-3.563 7.875-.025.274-.039.548-.045.83a51.27 51.27 0 003.277-1.581 13.68 13.68 0 01-.265-4.173zM33.005 24.648a13.032 13.032 0 00.211 3.779c4.655-2.55 9.886-6.491 9.684-11.253v-.415c-3.326.341-6.438 1.672-8.857 3.789a13.233 13.233 0 00-1.038 4.1z"/></symbol><symbol id="comp-tagline" viewBox="0 0 67 32"><path d="M33.798 15.058a2.098 2.098 0 01-.431-1.417v-2.055c0-.63.143-1.109.429-1.436s.776-.491 1.472-.489c.654 0 1.118.139 1.392.418.299.356.445.79.412 1.229v.483h-1.169v-.489c.004-.16-.007-.32-.034-.479a.464.464 0 00-.167-.284.676.676 0 00-.424-.111.714.714 0 00-.445.117.55.55 0 00-.194.313 2.349 2.349 0 00-.046.508v2.494c-.018.241.033.481.15.7.058.074.139.133.233.17s.199.051.302.039c.15.011.298-.03.414-.113a.5.5 0 00.174-.303c.027-.165.039-.332.036-.5v-.506h1.169v.462c.033.457-.109.911-.404 1.292-.269.305-.726.458-1.399.458s-1.182-.163-1.47-.502zM38.667 15.079c-.295-.32-.443-.786-.443-1.403v-2.161c0-.61.148-1.072.443-1.386s.789-.47 1.482-.468c.688 0 1.179.156 1.474.468.295.314.445.776.445 1.386v2.161c0 .61-.15 1.079-.45 1.4s-.789.483-1.47.483c-.68 0-1.184-.163-1.482-.481zm2.027-.518a1.2 1.2 0 00.14-.64v-2.646a1.172 1.172 0 00-.138-.627c-.059-.076-.142-.135-.239-.172s-.204-.05-.308-.037c-.105-.013-.212 0-.309.037s-.18.096-.24.172a1.146 1.146 0 00-.14.627v2.659c-.015.22.033.44.14.64.068.067.152.121.247.159s.197.056.301.056c.104 0 .206-.019.3-.056s.178-.091.247-.159v-.013zM43.475 9.724h1.259l.947 3.988.968-3.988h1.225l.124 5.756h-.906l-.097-4-.934 4h-.726l-.968-4.015-.09 4.015h-.915l.114-5.756zM49.409 9.724h1.961c1.13 0 1.695.545 1.695 1.634 0 1.044-.595 1.565-1.784 1.563h-.668v2.558h-1.211l.007-5.756zm1.676 2.46c.12.013.241.004.356-.028s.221-.084.31-.154a.93.93 0 00.174-.65 1.815 1.815 0 00-.058-.523c-.017-.057-.048-.111-.089-.158s-.094-.086-.153-.116a1.251 1.251 0 00-.54-.092h-.47v1.72h.47zM54.811 9.724h1.3l1.334 5.756h-1.128l-.264-1.327h-1.16l-.271 1.327h-1.145l1.334-5.756zm1.111 3.762l-.453-2.416-.453 2.416h.905zM58.522 9.724h.847l1.622 3.284V9.724h1.005v5.756h-.806l-1.632-3.428v3.428h-1.039l.002-5.756zM64.35 13.286l-1.349-3.553h1.135l.823 2.282.772-2.282h1.111l-1.332 3.553v2.195h-1.162v-2.195zM35.667 17.997v.301h-.988v2.339h-.414v-2.339h-.993v-.301h2.394zM38.764 20.637h-.32a.143.143 0 01-.09-.025.13.13 0 01-.053-.061l-.286-.627h-1.37l-.286.627a.172.172 0 01-.044.071.153.153 0 01-.09.025h-.32l1.211-2.64h.421l1.225 2.629zm-2.005-.98h1.143l-.484-1.074a1.85 1.85 0 01-.09-.249l-.046.14-.044.111-.479 1.072zM40.851 20.378c.076.003.152.003.228 0a1.651 1.651 0 00.368-.079c.053-.019.107-.042.162-.065v-.594h-.484c-.012.001-.024-.001-.035-.005s-.022-.009-.03-.016a.062.062 0 01-.024-.048v-.203h.939v1.012a1.907 1.907 0 01-.511.215c-.099.025-.2.043-.303.054a3.775 3.775 0 01-.353.017 1.843 1.843 0 01-.61-.098 1.492 1.492 0 01-.484-.276 1.259 1.259 0 01-.312-.418 1.32 1.32 0 01-.111-.548 1.356 1.356 0 01.109-.552c.07-.156.176-.299.312-.418a1.47 1.47 0 01.484-.274c.207-.067.427-.101.649-.098.113 0 .225.008.337.023a1.65 1.65 0 01.53.171c.074.041.145.087.211.138l-.116.163c-.009.015-.023.027-.039.036s-.036.014-.055.014a.16.16 0 01-.075-.021 1.81 1.81 0 01-.119-.063 1.02 1.02 0 00-.162-.071 1.524 1.524 0 00-.223-.059 1.854 1.854 0 00-.308-.023 1.413 1.413 0 00-.467.073.926.926 0 00-.581.537 1.236 1.236 0 000 .88 1.027 1.027 0 00.595.541c.154.046.317.063.479.052zM44.71 20.336h1.322v.301h-1.726v-2.64h.414l-.01 2.339zM47.407 20.637h-.414v-2.64h.414v2.64zM48.947 18.01a.203.203 0 01.063.048l1.77 1.99a.737.737 0 010-.094v-1.967h.361v2.651h-.208a.197.197 0 01-.09-.015.23.23 0 01-.065-.05l-1.767-1.988v2.053h-.346v-2.64h.215c.023 0 .046.004.068.013zM54.189 17.997v.291h-1.467v.872h1.189v.28h-1.189v.901h1.467v.291h-1.893v-2.634h1.893zM10.805 1.694L29.188 6.2v15.791l-18.383-4.504V1.694zM9.626.348v17.907l20.739 5.085V5.436L9.626.348z"/><path d="M20.741 31.652L0 26.562V8.657l20.741 5.088v17.907z"/><path d="M9.97 1.491l18.144 4.45-7.716 6.663L2.252 8.152 9.97 1.491zM9.626.348L0 8.658l20.741 5.087 9.624-8.31L9.626.348zM21.908 30.645l8.457-7.303-8.457-2.075v9.378z"/></symbol><symbol id="close" viewBox="0 0 32 32"><path d="M32 3.223L28.777 0 16 12.777 3.223 0 0 3.223 12.777 16 0 28.777 3.223 32 16 19.223 28.777 32 32 28.777 19.223 16 32 3.223z"/></symbol><symbol id="subscribe" viewBox="0 0 32 32"><path d="M32 0L0 18l10.227 3.788L26 7.001 14.002 23.187l.01.004-.012-.004v8.814l5.735-6.691L27 28.001l5-28z"/></symbol><symbol id="person-black" viewBox="0 0 32 32"><path d="M16 16c4.42 0 8-3.58 8-8s-3.58-8-8-8-8 3.58-8 8 3.58 8 8 8zm0 4c-5.34 0-16 2.68-16 8v2c0 1.1.9 2 2 2h28c1.1 0 2-.9 2-2v-2c0-5.32-10.66-8-16-8z"/></symbol><symbol id="phone-black" viewBox="0 0 32 32"><path d="M28.865 21.822l-4.525-.517a3.545 3.545 0 00-2.922 1.015l-3.278 3.278A26.8 26.8 0 016.401 13.859l3.296-3.296a3.545 3.545 0 001.015-2.921l-.517-4.489A3.566 3.566 0 006.65 0H3.568C1.555 0-.119 1.674.005 3.687.949 18.9 13.116 31.049 28.311 31.993c2.013.125 3.687-1.55 3.687-3.563v-3.082c.018-1.799-1.336-3.313-3.135-3.527z"/></symbol><symbol id="email-black" viewBox="0 0 32 32"><path d="M28.8 3.2H3.2C1.44 3.2.016 4.64.016 6.4L0 25.6c0 1.76 1.44 3.2 3.2 3.2h25.6c1.76 0 3.2-1.44 3.2-3.2V6.4c0-1.76-1.44-3.2-3.2-3.2zm-.64 6.8l-11.312 7.072c-.512.32-1.184.32-1.696 0L3.84 10c-.4-.256-.64-.688-.64-1.152 0-1.072 1.168-1.712 2.08-1.152L16 14.4l10.72-6.704c.912-.56 2.08.08 2.08 1.152 0 .464-.24.896-.64 1.152z"/></symbol><symbol id="checked" viewBox="0 0 32 32"><path stroke-width=".492" d="M3.398 15.311l-.191-.182L.34 17.844l10.1 9.635L31.658 7.237 28.81 4.52 10.439 22.028 3.397 15.31z"/></symbol></defs></svg>